{"accessors":[{"bufferView":0,"byteOffset":0,"componentType":5126,"count":4,"max":[-0.03739238164276324,0.004,0.000954269183631681],"min":[-0.03739238164276325,0.0,-0.01604573081637865],"type":"VEC3"},{"bufferView":0,"byteOffset":48,"componentType":5126,"count":66,"max":[-0.03339238164276201,0.004,-0.01604573081637865],"min":[-0.03739238164276324,0.0,-0.020045730816373484],"type":"VEC3"},{"bufferView":0,"byteOffset":840,"componentType":5126,"count":66,"max":[-0.03339238164276201,0.004,0.004954269183626514],"min":[-0.03739238164276325,0.0,0.000954269183631681],"type":"VEC3"},{"bufferView":0,"byteOffset":1632,"componentType":5126,"count":258,"max":[0.022607618357234346,0.0,0.004954269183626514],"min":[-0.03739238164276325,0.0,-0.020045730816373484],"type":"VEC3"},{"bufferView":0,"byteOffset":4728,"componentType":5126,"count":258,"max":[0.022607618357234346,0.004,0.004954269183626514],"min":[-0.03739238164276325,0.004,-0.020045730816373484],"type":"VEC3"},{"bufferView":0,"byteOffset":7824,"componentType":5126,"count":4,"max":[0.018607618357233114,0.004,-0.020045730816373484],"min":[-0.03339238164276201,0.0,-0.020045730816373484],"type":"VEC3"},{"bufferView":0,"byteOffset":7872,"componentType":5126,"count":4,"max":[0.018607618357233114,0.004,0.004954269183626514],"min":[-0.03339238164276201,0.0,0.004954269183626514],"type":"VEC3"},{"bufferView":0,"byteOffset":7920,"componentType":5126,"count":66,"max":[0.022607618357234346,0.004,-0.01604573081637865],"min":[0.018607618357233114,0.0,-0.020045730816373484],"type":"VEC3"},{"bufferView":0,"byteOffset":8712,"componentType":5126,"count":66,"max":[0.022607618357234346,0.004,0.004954269183626514],"min":[0.018607618357233114,0.0,0.000954269183631681],"type":"VEC3"},{"bufferView":0,"byteOffset":9504,"componentType":5126,"count":4,"max":[0.022607618357234346,0.004,0.000954269183631681],"min":[0.022607618357234346,0.0,-0.01604573081637865],"type":"VEC3"},{"bufferView":0,"byteOffset":9552,"componentType":5126,"count":254,"max":[-0.030598061000000003,0.004,-0.00500093245399755],"min":[-0.036598061,0.0,-0.010999067546002451],"type":"VEC3"},{"bufferView":1,"byteOffset":0,"componentType":5126,"count":4,"type":"VEC3"},{"bufferView":1,"byteOffset":48,"componentType":5126,"count":66,"type":"VEC3"},{"bufferView":1,"byteOffset":840,"componentType":5126,"count":66,"type":"VEC3"},{"bufferView":1,"byteOffset":1632,"componentType":5126,"count":258,"type":"VEC3"},{"bufferView":1,"byteOffset":4728,"componentType":5126,"count":258,"type":"VEC3"},{"bufferView":1,"byteOffset":7824,"componentType":5126,"count":4,"type":"VEC3"},{"bufferView":1,"byteOffset":7872,"componentType":5126,"count":4,"type":"VEC3"},{"bufferView":1,"byteOffset":7920,"componentType":5126,"count":66,"type":"VEC3"},{"bufferView":1,"byteOffset":8712,"componentType":5126,"count":66,"type":"VEC3"},{"bufferView":1,"byteOffset":9504,"componentType":5126,"count":4,"type":"VEC3"},{"bufferView":1,"byteOffset":9552,"componentType":5126,"count":254,"type":"VEC3"},{"bufferView":2,"byteOffset":0,"componentType":5123,"count":6,"type":"SCALAR"},{"bufferView":2,"byteOffset":12,"componentType":5123,"count":192,"type":"SCALAR"},{"bufferView":2,"byteOffset":396,"componentType":5123,"count":192,"type":"SCALAR"},{"bufferView":2,"byteOffset":780,"componentType":5123,"count":774,"type":"SCALAR"},{"bufferView":2,"byteOffset":2328,"componentType":5123,"count":774,"type":"SCALAR"},{"bufferView":2,"byteOffset":3876,"componentType":5123,"count":6,"type":"SCALAR"},{"bufferView":2,"byteOffset":3888,"componentType":5123,"count":6,"type":"SCALAR"},{"bufferView":2,"byteOffset":3900,"componentType":5123,"count":192,"type":"SCALAR"},{"bufferView":2,"byteOffset":4284,"componentType":5123,"count":192,"type":"SCALAR"},{"bufferView":2,"byteOffset":4668,"componentType":5123,"count":6,"type":"SCALAR"},{"bufferView":2,"byteOffset":4680,"componentType":5123,"count":756,"type":"SCALAR"}],"asset":{"generator":"Open CASCADE Technology 7.8 [dev.opencascade.org]","version":"2.0"},"bufferViews":[{"buffer":0,"byteLength":12600,"byteOffset":0,"byteStride":12,"target":34962},{"buffer":0,"byteLength":12600,"byteOffset":12600,"byteStride":12,"target":34962},{"buffer":0,"byteLength":6192,"byteOffset":25200,"target":34963}],"buffers":[{"byteLength":31392,"uri":"Unnamed3-BodyPocket.glb.bin"}],"materials":[{"name":"mat_0","pbrMetallicRoughness":{"baseColorFactor":[0.16826939582824707,0.19120168685913086,0.2158605307340622,1.0]},"doubleSided":true}],"meshes":[{"name":"Pocket","primitives":[{"attributes":{"NORMAL":11,"POSITION":0},"indices":22,"material":0,"mode":4},{"attributes":{"NORMAL":12,"POSITION":1},"indices":23,"material":0,"mode":4},{"attributes":{"NORMAL":13,"POSITION":2},"indices":24,"material":0,"mode":4},{"attributes":{"NORMAL":14,"POSITION":3},"indices":25,"material":0,"mode":4},{"attributes":{"NORMAL":15,"POSITION":4},"indices":26,"material":0,"mode":4},{"attributes":{"NORMAL":16,"POSITION":5},"indices":27,"material":0,"mode":4},{"attributes":{"NORMAL":17,"POSITION":6},"indices":28,"material":0,"mode":4},{"attributes":{"NORMAL":18,"POSITION":7},"indices":29,"material":0,"mode":4},{"attributes":{"NORMAL":19,"POSITION":8},"indices":30,"material":0,"mode":4},{"attributes":{"NORMAL":20,"POSITION":9},"indices":31,"material":0,"mode":4},{"attributes":{"NORMAL":21,"POSITION":10},"indices":32,"material":0,"mode":4}]}],"nodes":[{"mesh":0,"name":"Pocket"}],"scene":0,"scenes":[{"nodes":[0]}]}